<?xml version="1.0" standalone="no"?>
<!DOCTYPE svg PUBLIC "-//W3C//DTD SVG 20010904//EN"
 "http://www.w3.org/TR/2001/REC-SVG-20010904/DTD/svg10.dtd">
<svg version="1.0" xmlns="http://www.w3.org/2000/svg"
 width="819.000000pt" height="1096.000000pt" viewBox="0 0 819.000000 1096.000000"
 preserveAspectRatio="xMidYMid meet">

<g transform="translate(0.000000,1096.000000) scale(0.100000,-0.100000)"
fill="#000000" stroke="none">
<path d="M5395 10943 c-123 -5 -406 -33 -550 -54 -960 -138 -1764 -492 -2495
-1097 -140 -116 -515 -490 -629 -627 -643 -774 -1022 -1668 -1161 -2737 -12
-92 -20 -174 -18 -183 2 -11 24 9 67 60 85 100 311 319 436 424 391 326 885
638 1458 919 l177 87 0 145 c0 80 5 165 11 189 39 169 184 307 359 341 37 8
278 10 730 9 l675 -2 130 41 c301 95 719 212 1170 327 165 43 302 79 304 81 8
7 -182 91 -314 139 -233 84 -524 149 -855 191 -111 14 -248 18 -778 21 -353 3
-640 8 -637 13 8 13 220 142 335 203 658 350 1508 496 2400 411 619 -58 1187
-220 1726 -489 l167 -84 -6 451 c-4 248 -7 536 -7 639 l0 187 -127 50 c-495
193 -1077 306 -1773 342 -177 9 -619 11 -795 3z"/>
<path d="M6075 8618 c-278 -115 -856 -358 -868 -365 -4 -2 39 -28 95 -56 268
-135 452 -312 564 -542 156 -321 147 -779 -22 -1118 -70 -140 -139 -234 -258
-352 -267 -266 -636 -428 -1116 -491 -159 -20 -1242 -33 -1383 -15 -202 24
-356 161 -396 349 -7 35 -11 215 -11 533 l0 479 -67 -42 c-182 -112 -463 -304
-626 -427 -392 -294 -627 -502 -1144 -1015 l-333 -330 0 -60 c0 -166 36 -523
81 -796 142 -879 471 -1647 979 -2290 618 -780 1448 -1311 2407 -1538 l122
-29 27 81 c81 250 230 592 358 826 37 67 68 127 69 132 1 5 -56 24 -128 43
-643 167 -1188 495 -1637 983 l-108 117 0 890 c0 564 4 906 11 934 38 168 185
308 358 341 68 13 525 13 691 0 68 -5 167 -17 220 -26 477 -81 856 -357 1291
-939 41 -55 193 -265 338 -468 l263 -367 47 35 c169 129 502 336 701 435 47
23 86 44 88 45 5 4 -458 621 -577 769 -203 254 -375 425 -565 560 -95 68 -297
177 -404 217 -34 13 -61 28 -59 33 2 5 70 27 153 48 929 238 1550 736 1774
1425 118 361 118 819 -1 1184 -42 130 -146 335 -226 449 -106 147 -278 319
-433 432 l-35 26 -240 -100z"/>
<path d="M6749 3244 c-191 -145 -391 -316 -548 -467 -75 -74 -82 -83 -71 -102
65 -104 632 -880 668 -913 26 -24 73 -56 106 -71 l58 -29 -148 -36 c-274 -66
-562 -111 -874 -137 -148 -12 -608 -18 -779 -9 l-95 4 -119 -164 c-65 -91
-222 -320 -349 -510 l-231 -345 79 -12 c503 -78 1275 -74 1898 8 633 83 1205
248 1676 482 l125 62 3 583 c1 320 0 582 -2 582 -2 0 -40 -21 -83 -47 -90 -53
-380 -203 -393 -203 -6 0 -6 10 0 25 35 92 30 226 -11 322 -20 47 -774 1063
-789 1063 -4 0 -59 -39 -121 -86z"/>
</g>
</svg>
